<svg xmlns="http://www.w3.org/2000/svg" viewBox="0 0 25 25" id="colombia-sportswear"><path fill="#583689" d="M20.985 15.498a2.98 2.98 0 0 1-2.121-.876l-2.829-2.828a3.005 3.005 0 0 1 0-4.243 3.005 3.005 0 0 1 4.243 0l2.828 2.829c.565.565.877 1.318.877 2.121s-.312 1.556-.877 2.121a2.978 2.978 0 0 1-2.121.876zm-2.828-6.826a1 1 0 0 0-.708 1.706l2.829 2.828a1.03 1.03 0 0 0 1.414 0c.188-.187.291-.438.291-.707s-.104-.52-.291-.707l-2.828-2.829a1.004 1.004 0 0 0-.707-.291z"></path><path fill="#583689" d="M18.157 18.327a2.993 2.993 0 0 1-2.122-.876l-2.828-2.829a3.004 3.004 0 0 1 0-4.242c1.131-1.132 3.113-1.129 4.242 0l2.829 2.828a3.005 3.005 0 0 1 0 4.243 2.993 2.993 0 0 1-2.121.876zm-2.829-6.825a.993.993 0 0 0-.707.291 1 1 0 0 0 0 1.414l2.828 2.829c.392.39 1.025.389 1.415 0 .39-.39.39-1.025 0-1.415l-2.829-2.828a.989.989 0 0 0-.707-.291zM9.672 9.841a2.978 2.978 0 0 1-2.121-.876 2.979 2.979 0 0 1-.877-2.122c0-.803.312-1.557.877-2.122l2.828-2.828c1.129-1.13 3.113-1.13 4.242 0 .565.565.877 1.318.877 2.121s-.312 1.556-.877 2.122l-2.828 2.828a2.975 2.975 0 0 1-2.121.877zM12.5 3.017a.989.989 0 0 0-.707.291L8.965 6.136a.989.989 0 0 0-.291.707c0 .269.104.52.291.707a1.03 1.03 0 0 0 1.414 0l2.828-2.828c.188-.188.291-.438.291-.707a.993.993 0 0 0-.998-.998z"></path><path fill="#583689" d="M12.5 12.669a2.978 2.978 0 0 1-2.121-.876 2.98 2.98 0 0 1-.877-2.121c0-.803.312-1.557.877-2.122l2.828-2.828c1.131-1.132 3.113-1.129 4.242 0a2.98 2.98 0 0 1 .877 2.121c0 .803-.312 1.557-.877 2.122l-2.828 2.828a2.976 2.976 0 0 1-2.121.876zm2.828-6.824a.993.993 0 0 0-.707.291l-2.828 2.828a.99.99 0 0 0-.291.708c0 .269.104.52.291.707a1.03 1.03 0 0 0 1.414 0l2.828-2.829a.99.99 0 0 0 .291-.708.993.993 0 0 0-.998-.997z"></path><path fill="#DE002A" d="M9.672 21.155a2.979 2.979 0 0 1-2.121-.876 2.98 2.98 0 0 1-.877-2.121c0-.803.312-1.557.877-2.122l2.828-2.828c1.129-1.13 3.111-1.13 4.242 0a2.98 2.98 0 0 1 .877 2.121c0 .803-.312 1.557-.877 2.122l-2.828 2.828a2.978 2.978 0 0 1-2.121.876zm2.828-6.824a.989.989 0 0 0-.707.291L8.965 17.45a.99.99 0 0 0-.291.708c0 .269.104.52.291.707.375.376 1.039.375 1.414 0l2.828-2.828a.99.99 0 0 0 .291-.708.993.993 0 0 0-.291-.707.989.989 0 0 0-.707-.291z"></path><path fill="#DE002A" d="M12.5 23.983a2.98 2.98 0 0 1-2.121-.876c-.565-.565-.877-1.318-.877-2.121s.312-1.556.877-2.122l2.828-2.828c1.131-1.131 3.111-1.13 4.242 0a2.98 2.98 0 0 1 .877 2.121c0 .803-.312 1.557-.877 2.122l-2.828 2.828a2.98 2.98 0 0 1-2.121.876zm2.828-6.824a.993.993 0 0 0-.707.291l-2.828 2.828c-.188.188-.291.438-.291.707s.104.52.291.707c.375.376 1.039.375 1.414 0l2.828-2.828a.99.99 0 0 0 .291-.708.992.992 0 0 0-.998-.997zm-8.484 1.168a2.993 2.993 0 0 1-2.122-.876l-2.828-2.829c-.565-.565-.877-1.318-.877-2.121s.312-1.556.877-2.122c1.129-1.129 3.113-1.129 4.242 0l2.829 2.828a3.005 3.005 0 0 1 0 4.243 2.991 2.991 0 0 1-2.121.877zm-2.829-6.825a.994.994 0 0 0-.998.998c0 .269.104.52.291.707l2.828 2.829c.392.39 1.025.389 1.415 0 .39-.39.39-1.025 0-1.415l-2.829-2.828a.992.992 0 0 0-.707-.291z"></path><path fill="#DE002A" d="M9.672 15.498a2.979 2.979 0 0 1-2.121-.876l-2.829-2.828a3.005 3.005 0 0 1 0-4.243 3.005 3.005 0 0 1 4.243 0l2.828 2.829a3.004 3.004 0 0 1 0 4.242 2.978 2.978 0 0 1-2.121.876zM6.844 8.672a1 1 0 0 0-.708 1.706l2.829 2.828c.375.375 1.039.374 1.414 0a1 1 0 0 0 0-1.414L7.551 8.964a1.002 1.002 0 0 0-.707-.292z"></path></svg>